<svg width="8" height="11" viewBox="0 0 8 11" fill="none" xmlns="http://www.w3.org/2000/svg">
<path d="M0.632999 10.09C1.81833 9.138 2.747 8.35867 3.419 7.752C4.091 7.136 4.65567 6.49667 5.113 5.834C5.57967 5.162 5.813 4.504 5.813 3.86C5.813 3.25333 5.66367 2.77733 5.365 2.432C5.07567 2.07733 4.60433 1.9 3.951 1.9C3.31633 1.9 2.82167 2.10067 2.467 2.502C2.12167 2.894 1.935 3.42133 1.907 4.084H0.674999C0.712333 3.03867 1.02967 2.23133 1.627 1.662C2.22433 1.09267 2.99433 0.807999 3.937 0.807999C4.89833 0.807999 5.659 1.074 6.219 1.606C6.78833 2.138 7.073 2.87067 7.073 3.804C7.073 4.57867 6.83967 5.33467 6.373 6.072C5.91567 6.8 5.393 7.444 4.805 8.004C4.217 8.55467 3.46567 9.19867 2.551 9.936H7.367V11H0.632999V10.09Z" fill="white"/>
</svg>
