<svg width="42" height="40" viewBox="0 0 42 40" fill="none" xmlns="http://www.w3.org/2000/svg">
<path d="M14.9424 34.2C13.6551 34.1973 12.3974 33.8293 11.3279 33.1423C10.2585 32.4554 9.42508 31.4803 8.93283 30.3399C8.44058 29.1996 8.3115 27.9451 8.56186 26.7345C8.81223 25.524 9.43083 24.4116 10.3397 23.5375L21.3966 12.925C21.7604 12.5762 22.1924 12.2995 22.6678 12.1107C23.1432 11.9219 23.6527 11.8248 24.1673 11.8248C24.6819 11.8248 25.1914 11.9219 25.6668 12.1107C26.1422 12.2995 26.5742 12.5762 26.9381 12.925C27.3019 13.2739 27.5906 13.688 27.7875 14.1437C27.9844 14.5995 28.0857 15.088 28.0857 15.5813C28.0857 16.0746 27.9844 16.5631 27.7875 17.0188C27.5906 17.4746 27.3019 17.8887 26.9381 18.2375L15.8681 28.8375C15.7512 28.9684 15.6074 29.0747 15.4456 29.1497C15.2839 29.2247 15.1077 29.2669 14.9281 29.2735C14.7485 29.2802 14.5695 29.2512 14.4021 29.1883C14.2348 29.1255 14.0829 29.0302 13.9558 28.9083C13.8287 28.7865 13.7293 28.6408 13.6637 28.4804C13.5982 28.32 13.5679 28.1484 13.5749 27.9762C13.5818 27.8041 13.6258 27.6352 13.704 27.4801C13.7823 27.325 13.8932 27.1871 14.0297 27.075L25.0866 16.4625C25.3002 16.2234 25.4118 15.9158 25.3991 15.6012C25.3864 15.2866 25.2504 14.9882 25.0182 14.7656C24.786 14.543 24.4747 14.4125 24.1465 14.4004C23.8184 14.3882 23.4975 14.4952 23.2481 14.7L12.1781 25.3C11.4433 26.0045 11.0305 26.96 11.0305 27.9563C11.0305 28.9526 11.4433 29.9081 12.1781 30.6125C12.913 31.317 13.9097 31.7128 14.9489 31.7128C15.9881 31.7128 16.9848 31.317 17.7196 30.6125L28.7765 20C29.9641 18.8213 30.6212 17.2425 30.6064 15.6038C30.5915 13.965 29.9059 12.3975 28.6971 11.2387C27.4884 10.0799 25.8532 9.42256 24.1439 9.40832C22.4345 9.39408 20.7877 10.024 19.5581 11.1625L13.1039 17.4125C12.8596 17.6453 12.5291 17.776 12.1847 17.776C11.8402 17.776 11.5097 17.6453 11.2654 17.4125C11.1432 17.2963 11.0462 17.1581 10.98 17.0058C10.9138 16.8534 10.8797 16.69 10.8797 16.525C10.8797 16.36 10.9138 16.1966 10.98 16.0443C11.0462 15.892 11.1432 15.7537 11.2654 15.6375L17.7196 9.38753C19.4314 7.7465 21.753 6.82458 24.1738 6.82458C26.5946 6.82458 28.9163 7.7465 30.628 9.38753C32.3398 11.0286 33.3015 13.2543 33.3015 15.575C33.3015 17.8958 32.3398 20.1215 30.628 21.7625L19.5581 32.375C18.9516 32.9551 18.2317 33.4148 17.4397 33.7279C16.6477 34.0411 15.7991 34.2015 14.9424 34.2Z" fill="#A098AE"/>
</svg>
