<svg width="22" height="22" viewBox="0 0 22 22" fill="none" xmlns="http://www.w3.org/2000/svg">
<g clip-path="url(#clip0_611_1141)">
<path d="M21.6993 7.51103L19.9978 5.80947C19.5939 5.40557 18.9407 5.40557 18.5411 5.80947L8.2501 16.1005L3.46339 11.3095C3.05948 10.9056 2.40635 10.9056 2.00674 11.3095L0.300885 13.0153C-0.103021 13.4192 -0.103021 14.0724 0.300885 14.4763L7.51964 21.6993C7.92354 22.1032 8.57667 22.1032 8.97628 21.6993L21.695 8.97197C22.0989 8.56377 22.0989 7.91064 21.6993 7.51103ZM7.76456 12.0657C8.03096 12.3364 8.46924 12.3364 8.73565 12.0657L17.6732 3.11963C17.9396 2.84893 17.9396 2.41494 17.6732 2.14854L15.731 0.202051C15.4646 -0.0686523 15.0263 -0.0686523 14.7599 0.202051L8.2501 6.71182L5.86964 4.32705C5.60323 4.05635 5.16495 4.05635 4.89854 4.32705L2.95206 6.27353C2.68565 6.54424 2.68565 6.97822 2.95206 7.24463L7.76456 12.0657Z" fill="#878787"/>
</g>
<defs>
<clipPath id="clip0_611_1141">
<rect width="22" height="22" fill="white"/>
</clipPath>
</defs>
</svg>
