<svg width="24" height="24" viewBox="0 0 24 24" fill="none" xmlns="http://www.w3.org/2000/svg">
<path d="M12.0014 9.35995C11.6546 9.35995 11.3111 9.42827 10.9907 9.561C10.6702 9.69374 10.3791 9.88829 10.1338 10.1335C9.88854 10.3788 9.69399 10.67 9.56125 10.9904C9.42852 11.3109 9.3602 11.6543 9.3602 12.0012C9.3602 12.348 9.42852 12.6915 9.56125 13.0119C9.69399 13.3323 9.88854 13.6235 10.1338 13.8688C10.3791 14.114 10.6702 14.3086 10.9907 14.4413C11.3111 14.574 11.6546 14.6424 12.0014 14.6424C12.7019 14.6422 13.3736 14.3638 13.8688 13.8683C14.364 13.3729 14.6422 12.701 14.642 12.0006C14.6418 11.3001 14.3634 10.6283 13.868 10.1331C13.3726 9.63791 12.7007 9.3598 12.0002 9.35995H12.0014ZM3.6014 9.35995C3.25456 9.35995 2.91111 9.42827 2.59066 9.561C2.27022 9.69374 1.97905 9.88829 1.73379 10.1335C1.48854 10.3788 1.29399 10.67 1.16125 10.9904C1.02852 11.3109 0.960205 11.6543 0.960205 12.0012C0.960205 12.348 1.02852 12.6915 1.16125 13.0119C1.29399 13.3323 1.48854 13.6235 1.73379 13.8688C1.97905 14.114 2.27022 14.3086 2.59066 14.4413C2.91111 14.574 3.25456 14.6424 3.6014 14.6424C4.30189 14.6422 4.97363 14.3638 5.46884 13.8683C5.96405 13.3729 6.24216 12.701 6.242 12.0006C6.24185 11.3001 5.96342 10.6283 5.46799 10.1331C4.97256 9.63791 4.30069 9.3598 3.6002 9.35995H3.6014ZM20.4014 9.35995C20.0546 9.35995 19.7111 9.42827 19.3907 9.561C19.0702 9.69374 18.7791 9.88829 18.5338 10.1335C18.2885 10.3788 18.094 10.67 17.9613 10.9904C17.8285 11.3109 17.7602 11.6543 17.7602 12.0012C17.7602 12.348 17.8285 12.6915 17.9613 13.0119C18.094 13.3323 18.2885 13.6235 18.5338 13.8688C18.7791 14.114 19.0702 14.3086 19.3907 14.4413C19.7111 14.574 20.0546 14.6424 20.4014 14.6424C21.1019 14.6422 21.7736 14.3638 22.2688 13.8683C22.764 13.3729 23.0422 12.701 23.042 12.0006C23.0418 11.3001 22.7634 10.6283 22.268 10.1331C21.7726 9.63791 21.1007 9.3598 20.4002 9.35995H20.4014Z" fill="#A098AE"/>
</svg>
