<svg width="30" height="30" viewBox="0 0 30 30" fill="none" xmlns="http://www.w3.org/2000/svg">
<path d="M27.1772 16.3826C25.4965 15.7736 23.632 15.909 22.0555 16.7531L19.4856 17.9091C19.278 16.7255 18.369 15.8361 17.247 15.8019C17.2404 15.8017 13.3938 15.7583 13.3938 15.7583C10.3149 14.9138 8.31441 15.999 7.17319 17.0685C6.93979 17.2872 6.73453 17.5124 6.55389 17.7345C6.24594 17.4028 5.70235 17.3142 5.30594 17.5322L1.81421 19.4515C1.36133 19.7005 1.16428 20.2467 1.35421 20.7269L4.76665 29.3533C4.99088 29.9201 5.67998 30.1706 6.21768 29.875L9.70941 27.9556C10.0367 27.7757 10.2294 27.4405 10.24 27.0872H15.4514C16.3015 27.0872 17.1407 26.8639 17.8784 26.4415C17.8784 26.4415 27.6797 20.8192 27.735 20.7689C29.1075 19.5203 29.1499 17.0974 27.1772 16.3826C27.9641 16.6678 25.4965 15.7736 27.1772 16.3826ZM6.24889 27.516L3.59735 20.8131L5.27453 19.8912L7.92607 26.5941L6.24889 27.516ZM26.4234 19.1829L16.8558 24.662C16.4288 24.9065 15.9431 25.0358 15.4512 25.0358H9.5187L7.52678 20.0003C7.69742 19.6526 8.03351 19.0756 8.57934 18.5642C9.69723 17.5166 11.1707 17.2485 12.9591 17.7674C13.0485 17.7933 13.1411 17.807 13.2341 17.8081L17.1883 17.8526C17.2892 17.8613 17.4756 18.0857 17.4756 18.426C17.4756 18.7762 17.2831 18.9996 17.1825 18.9996H13.2974V21.051H17.1825C17.6638 21.051 18.1116 20.8882 18.4845 20.6094L22.9332 18.6082C22.9568 18.5976 22.9799 18.5862 23.0025 18.5738C24.0697 17.9935 25.3359 17.8977 26.4761 18.3109C26.9274 18.4745 26.6014 19.0023 26.4234 19.1829ZM20.2497 14.781C16.1749 14.781 12.8598 11.4656 12.8598 7.39045C12.8598 3.31538 16.1749 0 20.2497 0C24.3246 0 27.6397 3.31538 27.6397 7.39045C27.6397 11.4656 24.3245 14.781 20.2497 14.781ZM20.2497 2.05141C17.3079 2.05141 14.9145 4.44647 14.9145 7.39045C14.9145 10.3344 17.3079 12.7295 20.2497 12.7295C23.1916 12.7295 25.585 10.3344 25.585 7.39045C25.585 4.44654 23.1916 2.05141 20.2497 2.05141Z" fill="#C1BBEB"/>
<path d="M20.7267 6.55443C19.9097 6.21891 19.8465 6.07475 19.8465 5.90763C19.8465 5.8009 19.8995 5.55276 20.3902 5.55276C20.8391 5.55276 21.3985 5.80475 21.793 6.06443L22.3418 4.62596C21.95 4.37654 21.4738 4.16225 21.0286 4.09372V3.15827H19.5654V4.18475C18.6962 4.45872 18.1605 5.15359 18.1605 6.01859C18.1605 7.16423 19.0771 7.67571 19.9723 8.02436C20.6876 8.31212 20.7475 8.53237 20.7475 8.71628C20.7475 8.99917 20.4868 9.18193 20.0834 9.18193C19.5573 9.18193 18.9455 8.87846 18.5173 8.54641L17.9893 10.008C18.4259 10.3465 18.9314 10.57 19.5002 10.6534V11.6227H20.9725V10.5676C21.8689 10.2821 22.4427 9.53949 22.4427 8.65154C22.4427 7.40859 21.5257 6.87795 20.7267 6.55443Z" fill="#C1BBEB"/>
</svg>
