<svg width="30" height="30" viewBox="0 0 30 30" fill="none" xmlns="http://www.w3.org/2000/svg">
<path d="M25.0001 10L17.5001 3.42501C16.8126 2.81006 15.9225 2.47009 15.0001 2.47009C14.0777 2.47009 13.1876 2.81006 12.5001 3.42501L5.00012 10C4.60308 10.3551 4.28624 10.7907 4.07071 11.2778C3.85517 11.7649 3.74588 12.2924 3.75012 12.825V23.75C3.75012 24.7446 4.14521 25.6984 4.84847 26.4017C5.55173 27.1049 6.50556 27.5 7.50012 27.5H22.5001C23.4947 27.5 24.4485 27.1049 25.1518 26.4017C25.855 25.6984 26.2501 24.7446 26.2501 23.75V12.8125C26.2526 12.282 26.1424 11.7569 25.9269 11.2721C25.7115 10.7873 25.3956 10.3537 25.0001 10ZM17.5001 25H12.5001V18.75C12.5001 18.4185 12.6318 18.1005 12.8662 17.8661C13.1007 17.6317 13.4186 17.5 13.7501 17.5H16.2501C16.5816 17.5 16.8996 17.6317 17.134 17.8661C17.3684 18.1005 17.5001 18.4185 17.5001 18.75V25ZM23.7501 23.75C23.7501 24.0815 23.6184 24.3995 23.384 24.6339C23.1496 24.8683 22.8316 25 22.5001 25H20.0001V18.75C20.0001 17.7554 19.605 16.8016 18.9018 16.0984C18.1985 15.3951 17.2447 15 16.2501 15H13.7501C12.7556 15 11.8017 15.3951 11.0985 16.0984C10.3952 16.8016 10.0001 17.7554 10.0001 18.75V25H7.50012C7.1686 25 6.85066 24.8683 6.61623 24.6339C6.38181 24.3995 6.25012 24.0815 6.25012 23.75V12.8125C6.25034 12.635 6.28836 12.4596 6.36164 12.298C6.43492 12.1363 6.54178 11.9921 6.67512 11.875L14.1751 5.31251C14.4032 5.11211 14.6965 5.00159 15.0001 5.00159C15.3038 5.00159 15.597 5.11211 15.8251 5.31251L23.3251 11.875C23.4585 11.9921 23.5653 12.1363 23.6386 12.298C23.7119 12.4596 23.7499 12.635 23.7501 12.8125V23.75Z" fill="#C1BBEB"/>
</svg>
