<svg width="160" height="160" viewBox="0 0 160 160" fill="none" xmlns="http://www.w3.org/2000/svg">
<g filter="url(#filter0_d_670_1081)">
<path d="M50 60C50 43.4315 63.4315 30 80 30V30C96.5685 30 110 43.4315 110 60V60C110 76.5685 96.5685 90 80 90V90C63.4315 90 50 76.5685 50 60V60Z" fill="white"/>
<path d="M91.6641 59.4305L87.2604 52.0016C87.0778 51.6935 86.8303 51.4409 86.54 51.2661C86.2497 51.0914 85.9255 51 85.5963 51H74.4037C74.0745 51 73.7503 51.0914 73.46 51.2661C73.1697 51.4409 72.9223 51.6935 72.7396 52.0016L68.3359 59.4305C68.1169 59.8 68 60.2341 68 60.6782V66.745C68 67.9873 68.8954 68.9943 70 68.9943H90C91.1046 68.9943 92 67.9873 92 66.745V60.6782C92 60.2341 91.8831 59.8 91.6641 59.4305ZM74.7605 53.999H85.2395L88.7951 59.9971H83.6667L82.3333 62.9962H77.6667L76.3333 59.9971H71.2049L74.7605 53.999Z" fill="#A098AE"/>
</g>
<defs>
<filter id="filter0_d_670_1081" x="0" y="0" width="160" height="160" filterUnits="userSpaceOnUse" color-interpolation-filters="sRGB">
<feFlood flood-opacity="0" result="BackgroundImageFix"/>
<feColorMatrix in="SourceAlpha" type="matrix" values="0 0 0 0 0 0 0 0 0 0 0 0 0 0 0 0 0 0 127 0" result="hardAlpha"/>
<feOffset dy="20"/>
<feGaussianBlur stdDeviation="25"/>
<feColorMatrix type="matrix" values="0 0 0 0 0.74902 0 0 0 0 0.0823529 0 0 0 0 0.423529 0 0 0 0.05 0"/>
<feBlend mode="normal" in2="BackgroundImageFix" result="effect1_dropShadow_670_1081"/>
<feBlend mode="normal" in="SourceGraphic" in2="effect1_dropShadow_670_1081" result="shape"/>
</filter>
</defs>
</svg>
