<svg width="31" height="31" viewBox="0 0 31 31" fill="none" xmlns="http://www.w3.org/2000/svg">
<g clip-path="url(#clip0_604_3200)">
<path d="M29.7083 5.16672H4.73611C4.02273 5.16672 3.44444 5.74501 3.44444 6.45838V6.88894H1.29167C0.57829 6.88894 0 7.46723 0 8.18061V22.8195C0 24.484 1.34936 25.8334 3.01389 25.8334H28.4167C29.8434 25.8334 31 24.6768 31 23.2501V6.45838C31 5.74501 30.4217 5.16672 29.7083 5.16672ZM3.01389 23.2501C2.8997 23.2501 2.79018 23.2047 2.70944 23.1239C2.6287 23.0432 2.58333 22.9337 2.58333 22.8195V9.47227H3.44444V22.8195C3.44444 22.9337 3.39908 23.0432 3.31834 23.1239C3.23759 23.2047 3.12808 23.2501 3.01389 23.2501ZM15.7153 22.3889H7.53472C7.17806 22.3889 6.88889 22.0998 6.88889 21.7431V21.3126C6.88889 20.9559 7.17806 20.6667 7.53472 20.6667H15.7153C16.0719 20.6667 16.3611 20.9559 16.3611 21.3126V21.7431C16.3611 22.0998 16.0719 22.3889 15.7153 22.3889ZM26.9097 22.3889H18.7292C18.3725 22.3889 18.0833 22.0998 18.0833 21.7431V21.3126C18.0833 20.9559 18.3725 20.6667 18.7292 20.6667H26.9097C27.2664 20.6667 27.5556 20.9559 27.5556 21.3126V21.7431C27.5556 22.0998 27.2664 22.3889 26.9097 22.3889ZM15.7153 17.2223H7.53472C7.17806 17.2223 6.88889 16.9331 6.88889 16.5764V16.1459C6.88889 15.7892 7.17806 15.5001 7.53472 15.5001H15.7153C16.0719 15.5001 16.3611 15.7892 16.3611 16.1459V16.5764C16.3611 16.9331 16.0719 17.2223 15.7153 17.2223ZM26.9097 17.2223H18.7292C18.3725 17.2223 18.0833 16.9331 18.0833 16.5764V16.1459C18.0833 15.7892 18.3725 15.5001 18.7292 15.5001H26.9097C27.2664 15.5001 27.5556 15.7892 27.5556 16.1459V16.5764C27.5556 16.9331 27.2664 17.2223 26.9097 17.2223ZM26.9097 12.0556H7.53472C7.17806 12.0556 6.88889 11.7664 6.88889 11.4098V9.257C6.88889 8.90033 7.17806 8.61116 7.53472 8.61116H26.9097C27.2664 8.61116 27.5556 8.90033 27.5556 9.257V11.4098C27.5556 11.7664 27.2664 12.0556 26.9097 12.0556Z" fill="#303972"/>
</g>
<defs>
<clipPath id="clip0_604_3200">
<rect width="31" height="31" fill="white"/>
</clipPath>
</defs>
</svg>
