<svg width="15" height="15" viewBox="0 0 15 15" fill="none" xmlns="http://www.w3.org/2000/svg">
<path d="M13.7531 8.73919L14.9842 3.05169C15.0731 2.64104 14.7758 2.25 14.3747 2.25H4.14604L3.90734 1.02473C3.84787 0.719324 3.59193 0.5 3.29503 0.5H0.625C0.279818 0.5 0 0.793809 0 1.15625V1.59375C0 1.95619 0.279818 2.25 0.625 2.25H2.44487L4.27425 11.6408C3.83659 11.9051 3.54167 12.4006 3.54167 12.9688C3.54167 13.8144 4.19458 14.5 5 14.5C5.80542 14.5 6.45833 13.8144 6.45833 12.9688C6.45833 12.5402 6.29044 12.1529 6.02021 11.875H11.4798C11.2096 12.1529 11.0417 12.5402 11.0417 12.9688C11.0417 13.8144 11.6946 14.5 12.5 14.5C13.3054 14.5 13.9583 13.8144 13.9583 12.9688C13.9583 12.3625 13.6227 11.8386 13.136 11.5905L13.2796 10.9267C13.3685 10.516 13.0713 10.125 12.6702 10.125H5.68013L5.50969 9.25H13.1437C13.4355 9.25 13.6885 9.03798 13.7531 8.73919Z" fill="white"/>
</svg>
