<svg width="30" height="30" viewBox="0 0 30 30" fill="none" xmlns="http://www.w3.org/2000/svg">
<g clip-path="url(#clip0_668_250)">
<path fill-rule="evenodd" clip-rule="evenodd" d="M13.4466 29.0625H6.5625C5.00906 29.0625 3.75 27.8034 3.75 26.25V18.4397C3.75 17.0803 4.72219 15.9159 6.05906 15.6731C8.04094 15.3122 11.4581 14.6906 13.3912 14.34C14.4553 14.1459 15.5447 14.1459 16.6088 14.34C18.5419 14.6906 21.9591 15.3122 23.9409 15.6731C25.2778 15.9159 26.25 17.0803 26.25 18.4397C26.25 20.4844 26.25 24.0619 26.25 26.25C26.25 27.8034 24.9909 29.0625 23.4375 29.0625H13.4466ZM22.3388 17.2875L22.3425 17.2922C22.5066 17.5378 22.545 17.8462 22.4466 18.1247L21.7847 19.9997C21.6984 20.2444 21.5138 20.4431 21.2756 20.5472L20.0306 21.09L20.5256 22.0809C20.6644 22.3575 20.6569 22.6847 20.5069 22.9556L18.1556 27.1875H23.4375C23.955 27.1875 24.375 26.7675 24.375 26.25C24.375 24.0619 24.375 20.4844 24.375 18.4397C24.375 17.9869 24.0506 17.5987 23.6053 17.5172L22.3388 17.2875ZM19.7747 16.8206L16.2731 16.1841C15.4313 16.0312 14.5687 16.0312 13.7269 16.1841L10.2253 16.8206L9.47719 17.9428L9.8475 18.9909L11.625 19.7653C11.8603 19.8684 12.0431 20.0634 12.1313 20.3053C12.2194 20.5472 12.2034 20.8144 12.0881 21.0441L11.3719 22.4766L13.9894 27.1875H16.0106L18.6281 22.4766L17.9119 21.0441C17.7966 20.8144 17.7806 20.5472 17.8687 20.3053C17.9569 20.0634 18.1397 19.8684 18.375 19.7653L20.1525 18.9909L20.5228 17.9428L19.7747 16.8206ZM7.66125 17.2875L6.39469 17.5172C5.94937 17.5987 5.625 17.9869 5.625 18.4397V26.25C5.625 26.7675 6.045 27.1875 6.5625 27.1875H11.8444L9.49312 22.9556C9.34312 22.6847 9.33563 22.3575 9.47438 22.0809L9.96938 21.09L8.72437 20.5472C8.48625 20.4431 8.30156 20.2444 8.21531 19.9997L7.55344 18.1247C7.455 17.8462 7.49344 17.5378 7.6575 17.2922L7.66125 17.2875ZM21.5625 22.5V24.375C21.5625 24.8925 21.9825 25.3125 22.5 25.3125C23.0175 25.3125 23.4375 24.8925 23.4375 24.375V22.5C23.4375 21.9825 23.0175 21.5625 22.5 21.5625C21.9825 21.5625 21.5625 21.9825 21.5625 22.5ZM15 0.9375C11.6372 0.9375 8.90625 3.66844 8.90625 7.03125C8.90625 10.3941 11.6372 13.125 15 13.125C18.3628 13.125 21.0938 10.3941 21.0938 7.03125C21.0938 3.66844 18.3628 0.9375 15 0.9375ZM15 2.8125C17.3287 2.8125 19.2188 4.7025 19.2188 7.03125C19.2188 9.36 17.3287 11.25 15 11.25C12.6713 11.25 10.7812 9.36 10.7812 7.03125C10.7812 4.7025 12.6713 2.8125 15 2.8125Z" fill="#C1BBEB"/>
</g>
<defs>
<clipPath id="clip0_668_250">
<rect width="30" height="30" fill="white"/>
</clipPath>
</defs>
</svg>
