<svg width="23" height="24" viewBox="0 0 23 24" fill="none" xmlns="http://www.w3.org/2000/svg">
<path d="M6.27154 2.0948C6.22146 2.04454 6.16195 2.00467 6.09643 1.97746C6.03091 1.95025 5.96066 1.93625 5.88971 1.93625C5.81876 1.93625 5.74851 1.95025 5.68298 1.97746C5.61746 2.00467 5.55795 2.04454 5.50787 2.0948L2.64725 4.9388L1.62752 3.94513C1.57744 3.89488 1.51793 3.855 1.45241 3.82779C1.38688 3.80059 1.31663 3.78658 1.24568 3.78658C1.17474 3.78658 1.10448 3.80059 1.03896 3.82779C0.973437 3.855 0.913928 3.89488 0.863847 3.94513L0.158574 4.6513C0.108319 4.70138 0.0684444 4.76089 0.0412368 4.82642C0.0140292 4.89194 2.38419e-05 4.96219 2.38419e-05 5.03314C2.38419e-05 5.10409 0.0140292 5.17434 0.0412368 5.23986C0.0684444 5.30539 0.108319 5.36489 0.158574 5.41497L2.29641 7.54427C2.40312 7.64571 2.54472 7.70227 2.69194 7.70227C2.83917 7.70227 2.98077 7.64571 3.08748 7.54427L3.78781 6.84259L7.03117 3.59968C7.13223 3.49855 7.18933 3.36164 7.19008 3.21868C7.19084 3.07571 7.13519 2.93821 7.03521 2.83601L6.27154 2.0948ZM6.27154 9.24591C6.22146 9.19566 6.16195 9.15578 6.09643 9.12857C6.03091 9.10137 5.96066 9.08736 5.88971 9.08736C5.81876 9.08736 5.74851 9.10137 5.68298 9.12857C5.61746 9.15578 5.55795 9.19566 5.50787 9.24591L2.64725 12.1083L1.62752 11.1156C1.57744 11.0653 1.51793 11.0254 1.45241 10.9982C1.38688 10.971 1.31663 10.957 1.24568 10.957C1.17474 10.957 1.10448 10.971 1.03896 10.9982C0.973437 11.0254 0.913928 11.0653 0.863847 11.1156L0.158574 11.8204C0.108319 11.8705 0.0684444 11.93 0.0412368 11.9955C0.0140292 12.061 2.38419e-05 12.1313 2.38419e-05 12.2022C2.38419e-05 12.2732 0.0140292 12.3434 0.0412368 12.4089C0.0684444 12.4745 0.108319 12.534 0.158574 12.5841L2.29102 14.7178C2.39765 14.8193 2.53918 14.8758 2.68633 14.8758C2.83348 14.8758 2.97501 14.8193 3.08164 14.7178L3.78691 14.013L7.03027 10.7688C7.13094 10.6683 7.18785 10.5322 7.18861 10.39C7.18936 10.2478 7.13391 10.1111 7.03432 10.0096L6.27154 9.24591ZM2.875 17.0313C1.68502 17.0313 0.692246 17.9971 0.692246 19.1876C0.692246 20.378 1.68592 21.3438 2.875 21.3438C3.44687 21.3438 3.99532 21.1166 4.3997 20.7123C4.80407 20.3079 5.03125 19.7594 5.03125 19.1876C5.03125 18.6157 4.80407 18.0672 4.3997 17.6629C3.99532 17.2585 3.44687 17.0313 2.875 17.0313ZM22.2812 17.7501H9.34375C9.15313 17.7501 8.97031 17.8258 8.83552 17.9606C8.70073 18.0954 8.625 18.2782 8.625 18.4688V19.9063C8.625 20.0969 8.70073 20.2798 8.83552 20.4146C8.97031 20.5493 9.15313 20.6251 9.34375 20.6251H22.2812C22.4719 20.6251 22.6547 20.5493 22.7895 20.4146C22.9243 20.2798 23 20.0969 23 19.9063V18.4688C23 18.2782 22.9243 18.0954 22.7895 17.9606C22.6547 17.8258 22.4719 17.7501 22.2812 17.7501ZM22.2812 3.37507H9.34375C9.15313 3.37507 8.97031 3.4508 8.83552 3.58559C8.70073 3.72038 8.625 3.9032 8.625 4.09382V5.53132C8.625 5.72195 8.70073 5.90476 8.83552 6.03956C8.97031 6.17435 9.15313 6.25007 9.34375 6.25007H22.2812C22.4719 6.25007 22.6547 6.17435 22.7895 6.03956C22.9243 5.90476 23 5.72195 23 5.53132V4.09382C23 3.9032 22.9243 3.72038 22.7895 3.58559C22.6547 3.4508 22.4719 3.37507 22.2812 3.37507ZM22.2812 10.5626H9.34375C9.15313 10.5626 8.97031 10.6383 8.83552 10.7731C8.70073 10.9079 8.625 11.0907 8.625 11.2813V12.7188C8.625 12.9094 8.70073 13.0923 8.83552 13.2271C8.97031 13.3618 9.15313 13.4376 9.34375 13.4376H22.2812C22.4719 13.4376 22.6547 13.3618 22.7895 13.2271C22.9243 13.0923 23 12.9094 23 12.7188V11.2813C23 11.0907 22.9243 10.9079 22.7895 10.7731C22.6547 10.6383 22.4719 10.5626 22.2812 10.5626Z" fill="#878787"/>
</svg>
