<svg width="30" height="30" viewBox="0 0 30 30" fill="none" xmlns="http://www.w3.org/2000/svg">
<g clip-path="url(#clip0_668_255)">
<path fill-rule="evenodd" clip-rule="evenodd" d="M3.75 26.25C3.75 27.8034 5.00906 29.0625 6.5625 29.0625H23.4375C24.9909 29.0625 26.25 27.8034 26.25 26.25C26.25 24.0619 26.25 20.4844 26.25 18.4397C26.25 17.0803 25.2778 15.9159 23.9409 15.6731C21.9591 15.3122 18.5419 14.6906 16.6088 14.34C15.5447 14.1459 14.4553 14.1459 13.3912 14.34C11.4581 14.6906 8.04094 15.3122 6.05906 15.6731C4.72219 15.9159 3.75 17.0803 3.75 18.4397V26.25ZM17.1637 16.3463L18.5709 21.6966C18.7556 22.3988 18.5081 23.1441 17.94 23.5978C17.46 23.9803 16.7034 24.5841 16.1784 25.0041C15.4894 25.5534 14.5106 25.5534 13.8216 25.0041C13.2966 24.5841 12.54 23.9803 12.06 23.5978C11.4919 23.1441 11.2444 22.3988 11.4291 21.6966L12.8363 16.3463L6.39469 17.5172C5.94937 17.5987 5.625 17.9869 5.625 18.4397V26.25C5.625 26.7675 6.045 27.1875 6.5625 27.1875C10.485 27.1875 19.515 27.1875 23.4375 27.1875C23.955 27.1875 24.375 26.7675 24.375 26.25C24.375 24.0619 24.375 20.4844 24.375 18.4397C24.375 17.9869 24.0506 17.5987 23.6053 17.5172L17.1637 16.3463ZM15.1528 16.0716C15.0506 16.0688 14.9494 16.0688 14.8472 16.0716L13.2497 22.1484L14.9916 23.5378C14.9962 23.5425 15.0038 23.5425 15.0084 23.5378L16.7503 22.1484L15.1528 16.0716ZM15 0.9375C11.6372 0.9375 8.90625 3.66844 8.90625 7.03125C8.90625 10.3941 11.6372 13.125 15 13.125C18.3628 13.125 21.0938 10.3941 21.0938 7.03125C21.0938 3.66844 18.3628 0.9375 15 0.9375ZM15 2.8125C17.3287 2.8125 19.2188 4.7025 19.2188 7.03125C19.2188 9.36 17.3287 11.25 15 11.25C12.6713 11.25 10.7812 9.36 10.7812 7.03125C10.7812 4.7025 12.6713 2.8125 15 2.8125Z" fill="#C1BBEB"/>
</g>
<defs>
<clipPath id="clip0_668_255">
<rect width="30" height="30" fill="white"/>
</clipPath>
</defs>
</svg>
