<svg width="22" height="23" viewBox="0 0 22 23" fill="none" xmlns="http://www.w3.org/2000/svg">
<path d="M1.83301 17.9163C1.83301 19.4747 3.02467 20.6663 4.58301 20.6663H17.4163C18.9747 20.6663 20.1663 19.4747 20.1663 17.9163V10.583H1.83301V17.9163ZM17.4163 4.16634H15.583V3.24967C15.583 2.69967 15.2163 2.33301 14.6663 2.33301C14.1163 2.33301 13.7497 2.69967 13.7497 3.24967V4.16634H8.24967V3.24967C8.24967 2.69967 7.88301 2.33301 7.33301 2.33301C6.78301 2.33301 6.41634 2.69967 6.41634 3.24967V4.16634H4.58301C3.02467 4.16634 1.83301 5.35801 1.83301 6.91634V8.74967H20.1663V6.91634C20.1663 5.35801 18.9747 4.16634 17.4163 4.16634Z" fill="#3C3C3C"/>
</svg>
